/* XPM */
static char *avp[] = {
/* columns rows colors chars-per-pixel */
"32 32 105 2",
"   c black",
".  c #000302",
"X  c #060203",
"o  c #090F0E",
"O  c #100F0A",
"+  c #110F0F",
"@  c #101010",
"#  c #111513",
"$  c #1E1210",
"%  c #1F201E",
"&  c #1A2020",
"*  c #211613",
"=  c #261511",
"-  c #3C1F1B",
";  c #3E1D18",
":  c #2D221F",
">  c #212721",
",  c #202727",
"<  c #212927",
"1  c #2E2B28",
"2  c #2C3533",
"3  c #332823",
"4  c #3C2620",
"5  c #3E2923",
"6  c #32362E",
"7  c #3B312E",
"8  c #373A30",
"9  c #3F3632",
"0  c #344335",
"q  c #3F524A",
"w  c #4F342C",
"e  c #413E3D",
"r  c #572F28",
"t  c #682E24",
"y  c #6E352A",
"u  c #6C3D30",
"i  c #454B3B",
"p  c #4C4441",
"a  c #415942",
"s  c #4B5142",
"d  c #504D4C",
"f  c #59534F",
"g  c #5C5C5E",
"h  c #4E6458",
"j  c #5A7055",
"k  c #5D795D",
"l  c #624F45",
"z  c #644A40",
"x  c #664C41",
"c  c #755246",
"v  c #75574B",
"b  c #7F5242",
"n  c #697960",
"m  c #7D6D65",
"M  c #5F845A",
"N  c #6E8265",
"B  c #6B9264",
"V  c #7B8C65",
"C  c #73936E",
"Z  c #7E9577",
"A  c #77A36F",
"S  c #803C2E",
"D  c #884331",
"F  c #8C4F3C",
"G  c #995C47",
"H  c #836355",
"J  c #917C71",
"K  c #B35B41",
"L  c #BD6A4E",
"P  c #B77257",
"I  c #C37F62",
"U  c #80816C",
"Y  c #83916E",
"T  c #928278",
"R  c #918E7C",
"E  c #9A8276",
"W  c #81AE7B",
"Q  c #8CAB7B",
"!  c #D08160",
"~  c #E4A07F",
"^  c #9E8E85",
"/  c #8AAE81",
"(  c #91B781",
")  c #9BBC8F",
"_  c #9EBE8F",
"`  c #98B290",
"'  c #B09485",
"]  c #BDA99B",
"[  c #DD9F81",
"{  c #DCAD93",
"}  c #DBB7A2",
"|  c #ECAB8A",
" . c #F1A783",
".. c #E0B7A0",
"X. c #EECBB6",
"o. c #F5C3A9",
"O. c #FAD2BA",
"+. c #F7D5C1",
"@. c #FCD7C1",
"#. c #F2DCD0",
"$. c #FDE1D0",
"%. c #FFEADF",
"&. c #FFEEE4",
"*. c #FFF4EE",
"=. c gray100",
/* pixels */
"                                                                ",
"                                                                ",
"                                                                ",
"                                                                ",
"                                                                ",
"                                                                ",
"                                                                ",
"                                                                ",
"    &         @                     > %       @ @       0 &     ",
"  o Z +       k +       % 8         Y %       Y j     % _ a     ",
"  @ ` O       N         q n         N       o W N     6 Q 1     ",
"  % ) #       N         h R         Z %     @ W V     % M 6     ",
"  < _ %       N         h U         C @     o W Y     @ C i     ",
"  0 / 6       N +       q s       o Y +     @ A B     < ( 9     ",
"  2 j %       k %       o o         j %       q 8     & M %     ",
"      , %       6 +     + d       % 6       e %       g @       ",
"      % $       6       + 3       + @       %         $         ",
"  3 J m : H J 6 - m n : J v +   c m   l J J $ l m : 7 m m @     ",
"  l *.*.P o.&.] F *.x y *.*.f X +.=.* H *.' r *.&.^ b *.&.d     ",
"  z $.#.I ..+.E S #.w u $.@.f $ &.*.7 + +.: - %.X.^ u %.+.p     ",
"  l &.#.D ..*.l u *.H t %.O.f 4 %.$.f + o.: 5 +.o.T u *.#.%     ",
"  z { : - ~ ~ H S } = y X.~ z u o.X.H $ [ $ 5 |  .H u | ~ p     ",
"  r G   : K K u t L b t ! F = S y t u $ F + * K L - r L K :     ",
"    O     + +   X $ X X $ X   +     X   O     + X     O O       ",
"                                                                ",
"                                                                ",
"                                                                ",
"                                                                ",
"                                                                ",
"                                                                ",
"                                                                ",
"                                                                "
};
